HIERARCHY
ROOT Hips
{
	OFFSET 0.000000 0.000000 0.000000
	CHANNELS 6 Xposition Yposition Zposition Zrotation Yrotation Xrotation 
	JOINT LHipJoint
	{
		OFFSET 0.000000 0.000000 0.000000
		CHANNELS 3 Zrotation Yrotation Xrotation
		JOINT LeftUpLeg
		{
			OFFSET 1.363060 -1.794630 0.839290
			CHANNELS 3 Zrotation Yrotation Xrotation
			JOINT LeftLeg
			{
				OFFSET 2.448110 -6.726130 0.000000
				CHANNELS 3 Zrotation Yrotation Xrotation
				JOINT LeftFoot
				{
					OFFSET 2.562200 -7.039590 0.000000
					CHANNELS 3 Zrotation Yrotation Xrotation
					JOINT LeftToeBase
					{
						OFFSET 0.157640 -0.433110 2.322550
						CHANNELS 3 Zrotation Yrotation Xrotation
						End Site
						{
							OFFSET 0.000000 0.000000 0.000000
						}
					}
				}
			}
		}
	}
	JOINT RHipJoint
	{
		OFFSET 0.000000 0.000000 0.000000
		CHANNELS 3 Zrotation Yrotation Xrotation
		JOINT RightUpLeg
		{
			OFFSET -1.305520 -1.794630 0.839290
			CHANNELS 3 Zrotation Yrotation Xrotation
			JOINT RightLeg
			{
				OFFSET -2.542530 -6.985550 0.000000
				CHANNELS 3 Zrotation Yrotation Xrotation
				JOINT RightFoot
				{
					OFFSET -2.568260 -7.056230 0.000000
					CHANNELS 3 Zrotation Yrotation Xrotation
					JOINT RightToeBase
					{
						OFFSET -0.164730 -0.452590 2.363150
						CHANNELS 3 Zrotation Yrotation Xrotation
						End Site
						{
							OFFSET 0.000000 0.000000 0.000000
						}
					}
				}
			}
		}
	}
	JOINT LowerBack
	{
		OFFSET 0.000000 0.000000 0.000000
		CHANNELS 3 Zrotation Yrotation Xrotation
		JOINT Spine
		{
			OFFSET 0.028270 2.035590 -0.193380
			CHANNELS 3 Zrotation Yrotation Xrotation
			JOINT Spine1
			{
				OFFSET 0.056720 2.048850 -0.042750
				CHANNELS 3 Zrotation Yrotation Xrotation
				JOINT Neck
				{
					OFFSET 0.000000 0.000000 0.000000
					CHANNELS 3 Zrotation Yrotation Xrotation
					JOINT Neck1
					{
						OFFSET -0.054170 1.746240 0.172020
						CHANNELS 3 Zrotation Yrotation Xrotation
						JOINT Head
						{
							OFFSET 0.104070 1.761360 -0.123970
							CHANNELS 3 Zrotation Yrotation Xrotation
							End Site
							{
								OFFSET 0.000000 0.000000 0.000000
							}
						}
					}
				}
				JOINT LeftShoulder
				{
					OFFSET 0.000000 0.000000 0.000000
					CHANNELS 3 Zrotation Yrotation Xrotation
					JOINT LeftArm
					{
						OFFSET 3.362410 1.200890 -0.311210
						CHANNELS 3 Zrotation Yrotation Xrotation
						JOINT LeftForeArm
						{
							OFFSET 4.983000 -0.000000 -0.000000
							CHANNELS 3 Zrotation Yrotation Xrotation
							JOINT LeftHand
							{
								OFFSET 3.483560 -0.000000 -0.000000
								CHANNELS 3 Zrotation Yrotation Xrotation
								JOINT LeftFingerBase
								{
									OFFSET 0.000000 0.000000 0.000000
									CHANNELS 3 Zrotation Yrotation Xrotation
									JOINT LeftHandIndex1
									{
										OFFSET 0.715260 -0.000000 -0.000000
										CHANNELS 3 Zrotation Yrotation Xrotation
										End Site
										{
											OFFSET 0.000000 0.000000 0.000000
										}
									}
								}
								JOINT LThumb
								{
									OFFSET 0.000000 0.000000 0.000000
									CHANNELS 3 Zrotation Yrotation Xrotation
									End Site
									{
										OFFSET 0.000000 0.000000 0.000000
									}
								}
							}
						}
					}
				}
				JOINT RightShoulder
				{
					OFFSET 0.000000 0.000000 0.000000
					CHANNELS 3 Zrotation Yrotation Xrotation
					JOINT RightArm
					{
						OFFSET -3.136600 1.374050 -0.404650
						CHANNELS 3 Zrotation Yrotation Xrotation
						JOINT RightForeArm
						{
							OFFSET -5.241900 -0.000000 -0.000000
							CHANNELS 3 Zrotation Yrotation Xrotation
							JOINT RightHand
							{
								OFFSET -3.444170 -0.000000 -0.000000
								CHANNELS 3 Zrotation Yrotation Xrotation
								JOINT RightFingerBase
								{
									OFFSET 0.000000 0.000000 0.000000
									CHANNELS 3 Zrotation Yrotation Xrotation
									JOINT RightHandIndex1
									{
										OFFSET -0.622530 -0.000000 -0.000000
										CHANNELS 3 Zrotation Yrotation Xrotation
										End Site
										{
											OFFSET 0.000000 0.000000 0.000000
										}
									}
								}
								JOINT RThumb
								{
									OFFSET 0.000000 0.000000 0.000000
									CHANNELS 3 Zrotation Yrotation Xrotation
									End Site
									{
										OFFSET 0.000000 0.000000 0.000000
									}
								}
							}
						}
					}
				}
			}
		}
	}
}
MOTION
Frames: 12
Frame Time: 0.016667
-1.172509 16.955970 23.866851 3.249841 -3.206736 8.457803 -11.664282 -0.379613 -11.349939 -14.520668 3.562035 -1.858775 -1.309408 1.310879 -7.823622 -0.576082 1.796705 -7.149590 0.000000 0.000000 0.000000 7.232252 -11.379266 10.039209 3.219570 8.311602 -5.367349 7.050440 -12.916390 34.645669 15.515583 -29.024262 20.284049 0.000000 0.000000 0.000000 7.920533 4.942561 9.077774 -9.443847 2.019817 -7.178694 -4.604980 3.102225 -2.357821 -0.123855 -0.172917 -10.063618 2.317457 -0.156568 4.661531 0.000000 0.000000 0.000000 1.043003 5.530928 7.891248 -62.103603 -7.201626 -21.258865 43.652050 -81.155642 -0.594952 5.187704 -2.082890 -0.300451 5.222911 -2.060252 -0.000000 0.000000 0.000000 0.000000 0.000000 0.000000 0.000000 -4.644935 -2.774828 5.952903 64.093934 15.542576 -9.609536 -7.016191 52.775474 -0.105062 -1.032249 0.540025 -0.052631 -1.035614 0.539026 -0.000000 0.000000 0.000000 0.000000 0.000000 0.000000 0.000000 
-1.169105 16.986532 24.055536 3.449748 -3.595156 8.498200 -11.865829 -0.625705 -11.526684 -13.880622 3.758029 -2.046234 -2.268998 2.284763 -5.819478 -0.558953 1.308642 -9.168845 0.000000 0.000000 0.000000 7.647627 -11.329597 10.318930 2.861849 8.281711 -5.343024 6.016290 -12.554008 34.457849 15.627941 -30.554312 21.841692 0.000000 0.000000 0.000000 7.903112 4.966916 9.007339 -9.618426 1.965393 -7.340109 -4.778201 3.083926 -1.977111 -0.164626 -0.182087 -10.252729 2.372740 -0.156272 4.675763 0.000000 0.000000 0.000000 1.091124 5.200398 7.745540 -61.831949 -7.307260 -20.799702 43.069063 -80.254733 -0.588747 4.982285 -1.899270 -0.297205 5.016269 -1.877555 -0.000000 0.000000 0.000000 0.000000 0.000000 0.000000 0.000000 -4.811883 -2.359756 6.302350 64.630927 15.269266 -9.938377 -7.275872 51.641618 -0.099703 -1.076448 0.742437 -0.049948 -1.079692 0.741478 -0.000000 0.000000 0.000000 0.000000 0.000000 0.000000 0.000000 
-1.164041 17.019499 24.241526 3.562122 -4.028656 8.592161 -12.169463 -0.841131 -11.578258 -13.130253 3.865034 -2.387056 -3.030722 3.218039 -3.904776 -0.540216 0.885413 -10.903618 0.000000 0.000000 0.000000 8.017015 -11.301817 10.602051 2.401651 8.257644 -5.385284 5.390944 -12.176860 34.188579 15.668885 -32.137691 23.451635 0.000000 0.000000 0.000000 7.944196 4.996175 8.880108 -9.770287 1.920904 -7.524710 -4.954695 3.075103 -1.566328 -0.169656 -0.197905 -10.447357 2.411400 -0.155290 4.669984 0.000000 0.000000 0.000000 1.171731 4.884788 7.555012 -61.506922 -7.427956 -20.195067 42.105557 -79.081281 -0.578658 4.701982 -1.656401 -0.291966 4.734309 -1.635924 -0.000000 0.000000 0.000000 0.000000 0.000000 0.000000 0.000000 -5.049817 -1.916786 6.676296 65.232650 14.943748 -10.215760 -7.524120 50.239654 -0.093126 -1.140447 0.991840 -0.046653 -1.143511 0.990939 -0.000000 0.000000 0.000000 0.000000 0.000000 0.000000 0.000000 
-1.159830 17.053133 24.424911 3.636461 -4.418214 8.749267 -12.549669 -0.963896 -11.494450 -12.363299 3.845342 -2.893744 -3.638763 4.069741 -2.078213 -0.518042 0.490267 -12.373143 0.000000 0.000000 0.000000 8.430768 -11.284561 10.875374 1.889262 8.225597 -5.498981 4.893081 -11.806890 33.903425 15.660169 -33.717266 24.994895 0.000000 0.000000 0.000000 7.979360 5.010833 8.677199 -9.894282 1.871195 -7.684320 -5.126267 3.057933 -1.188965 -0.107272 -0.207954 -10.625758 2.431387 -0.152211 4.646068 0.000000 0.000000 0.000000 1.255414 4.656549 7.355859 -61.137989 -7.551063 -19.560043 40.808749 -78.099054 -0.571194 4.430258 -1.409013 -0.288061 4.461172 -1.389641 -0.000000 0.000000 0.000000 0.000000 0.000000 0.000000 0.000000 -5.359028 -1.574083 7.056905 65.918546 14.568558 -10.401713 -7.792448 48.715610 -0.085112 -1.225522 1.284369 -0.042637 -1.228342 1.283544 -0.000000 0.000000 0.000000 0.000000 0.000000 0.000000 0.000000 
-1.156033 17.087000 24.605678 3.678173 -4.758044 8.967342 -12.993743 -0.982677 -11.284176 -11.612311 3.703233 -3.552698 -4.084227 4.828664 -0.350789 -0.492599 0.112258 -13.612140 0.000000 0.000000 0.000000 8.878176 -11.277727 11.137050 1.335140 8.183920 -5.679120 4.520063 -11.436888 33.613872 15.605129 -35.278781 26.460243 0.000000 0.000000 0.000000 8.008749 5.006573 8.404469 -9.998155 1.800800 -7.854280 -5.305113 3.006384 -0.930732 0.059852 -0.214962 -10.645289 2.406674 -0.146183 4.585772 0.000000 0.000000 0.000000 1.264989 4.456254 6.865727 -60.283967 -8.021452 -18.323345 37.382202 -77.494756 -0.558916 3.749849 -0.754241 -0.281590 3.778064 -0.736937 -0.000000 0.000000 0.000000 0.000000 0.000000 0.000000 0.000000 -5.726393 -1.243322 7.509946 66.689539 14.097061 -10.481837 -8.109004 47.014015 -0.075269 -1.335932 1.627053 -0.037703 -1.338435 1.626319 -0.000000 0.000000 0.000000 0.000000 0.000000 0.000000 0.000000 
-1.154311 17.119027 24.781282 3.695815 -5.041914 9.239736 -13.465372 -0.912597 -10.911175 -10.531590 3.502675 -4.484500 -5.185940 5.663540 1.388488 -0.470407 -0.154724 -14.734877 0.000000 0.000000 0.000000 9.384684 -11.221529 11.327691 0.765325 8.107172 -5.892584 4.211260 -11.084148 33.406652 15.546664 -36.867944 27.816140 0.000000 0.000000 0.000000 7.982182 4.962848 8.095271 -10.010019 1.704197 -8.013227 -5.508685 2.910803 -0.769243 0.362443 -0.223012 -10.525359 2.334668 -0.136840 4.483456 0.000000 0.000000 0.000000 1.282251 4.304541 6.019378 -59.122430 -9.065972 -16.347547 32.458705 -76.735177 -0.528543 2.845314 0.149361 -0.265920 2.869306 0.163797 -0.000000 0.000000 0.000000 0.000000 0.000000 0.000000 0.000000 -6.286135 -0.932639 8.075252 67.719866 13.558195 -10.527591 -8.838872 45.504748 -0.062547 -1.496857 2.061832 -0.031329 -1.498987 2.061183 -0.000000 0.000000 0.000000 0.000000 0.000000 0.000000 0.000000 
-1.155321 17.148821 24.951788 3.684039 -5.256624 9.561569 -13.978017 -0.752586 -10.393780 -9.232256 3.222405 -5.656655 -6.631682 6.536610 3.134433 -0.454762 -0.353728 -15.705790 0.000000 0.000000 0.000000 9.955486 -11.112857 11.452042 0.187639 7.997127 -6.133604 3.973478 -10.743787 33.289688 15.497787 -38.484223 29.050468 0.000000 0.000000 0.000000 7.901016 4.877971 7.751141 -9.918850 1.592831 -8.113185 -5.729207 2.794862 -0.605798 0.763387 -0.227170 -10.433354 2.249671 -0.125204 4.361907 0.000000 0.000000 0.000000 1.395466 4.276559 5.130904 -58.190843 -10.299358 -14.371881 28.225012 -75.592240 -0.488423 2.210353 0.797878 -0.245453 2.230364 0.809767 -0.000000 0.000000 0.000000 0.000000 0.000000 0.000000 0.000000 -7.065051 -0.746863 8.671565 69.041972 13.012255 -10.527785 -10.059776 44.136313 -0.045377 -1.729095 2.624820 -0.022730 -1.730800 2.624237 0.000000 0.000000 0.000000 0.000000 0.000000 0.000000 0.000000 
-1.155189 17.178636 25.116495 3.636836 -5.478148 9.890428 -14.624884 -0.622018 -9.834823 -7.905306 2.886444 -6.925503 -7.670190 7.397688 4.928143 -0.439508 -0.564764 -16.561641 0.000000 0.000000 0.000000 10.588792 -10.891028 11.484559 -0.387951 7.839442 -6.367356 3.741255 -10.393569 33.333151 15.369494 -40.109003 30.297232 0.000000 0.000000 0.000000 7.838335 4.765471 7.432082 -9.818024 1.469873 -8.161233 -5.854858 2.652108 -0.481020 1.149917 -0.235509 -10.355441 2.147763 -0.115630 4.241739 0.000000 0.000000 0.000000 1.635689 4.313043 4.358953 -57.615037 -11.421263 -12.784377 24.990431 -74.153046 -0.451403 1.852000 1.162987 -0.226664 1.868973 1.172940 -0.000000 0.000000 0.000000 0.000000 0.000000 0.000000 0.000000 -7.867679 -0.681378 9.119095 70.338047 12.647808 -10.615614 -11.914564 43.233512 -0.025256 -1.956695 3.145399 -0.012653 -1.957924 3.144875 0.000000 0.000000 0.000000 0.000000 0.000000 0.000000 0.000000 
-1.154354 17.208424 25.275494 3.594134 -5.704932 10.188891 -15.292971 -0.520071 -9.329944 -6.757117 2.543535 -8.121574 -8.217802 8.207123 6.721084 -0.425983 -0.766946 -17.242738 0.000000 0.000000 0.000000 11.243380 -10.559183 11.449927 -0.956003 7.645173 -6.578425 3.515119 -10.016964 33.549888 15.151774 -41.715349 31.575101 0.000000 0.000000 0.000000 7.759256 4.613949 7.171581 -9.708537 1.324599 -8.151364 -5.866782 2.468450 -0.393292 1.513999 -0.252989 -10.291453 2.024215 -0.108484 4.121034 0.000000 0.000000 0.000000 2.006425 4.431102 3.723516 -57.366939 -12.351975 -11.621173 22.468724 -72.630354 -0.422181 1.677171 1.332398 -0.211875 1.692063 1.340971 -0.000000 0.000000 0.000000 0.000000 0.000000 0.000000 0.000000 -8.673109 -0.752399 9.439517 71.597803 12.463278 -10.889583 -14.521632 43.042664 -0.003076 -2.174097 3.587320 -0.001546 -2.174790 3.586868 0.000000 0.000000 0.000000 0.000000 0.000000 0.000000 0.000000 
-1.155481 17.240547 25.432048 3.616176 -5.755531 10.443301 -15.816728 -0.378814 -8.890786 -5.902136 2.175745 -9.160519 -8.637223 8.933343 8.453984 -0.423251 -0.873882 -17.525689 0.000000 0.000000 0.000000 11.883922 -10.237956 11.440566 -1.505511 7.481249 -6.797737 3.395609 -9.560460 33.872901 15.099589 -43.507597 32.655910 0.000000 0.000000 0.000000 7.633405 4.461169 6.914579 -9.601440 1.185137 -8.002527 -5.826885 2.285222 -0.211496 1.825348 -0.275051 -10.435768 1.901483 -0.105421 4.050992 0.000000 0.000000 0.000000 2.440651 4.478198 3.418036 -57.549285 -12.850770 -11.161319 21.002721 -71.436122 -0.408517 1.675486 1.313285 -0.204979 1.689634 1.321230 -0.000000 0.000000 0.000000 0.000000 0.000000 0.000000 0.000000 -9.423788 -0.784227 9.682182 73.031257 12.346914 -10.988623 -18.192108 42.116788 0.034334 -2.478666 4.189438 0.017195 -2.478371 4.189167 0.000000 0.000000 0.000000 0.000000 0.000000 0.000000 0.000000 
-1.159172 17.275346 25.586510 3.641865 -5.573228 10.721057 -16.407964 -0.232633 -8.350725 -4.979024 1.696466 -10.329770 -9.027488 9.607469 10.217079 -0.425286 -0.959129 -17.588905 0.000000 0.000000 0.000000 12.595569 -9.868873 11.420914 -2.012007 7.372597 -7.022529 3.416422 -8.974152 34.322751 15.309356 -45.542975 33.477367 0.000000 0.000000 0.000000 7.534658 4.330097 6.593989 -9.626317 1.051856 -7.672355 -5.642523 2.076990 0.012000 2.222610 -0.338071 -10.808145 1.682356 -0.115008 4.085570 0.000000 0.000000 0.000000 3.044807 4.454639 3.541719 -58.304953 -12.896097 -11.368632 20.474056 -70.641243 -0.410548 1.839202 1.117373 -0.206025 1.853836 1.125340 -0.000000 0.000000 0.000000 0.000000 0.000000 0.000000 0.000000 -10.274633 -0.790304 9.705743 75.519959 12.646680 -10.810188 -24.645685 39.175421 0.123920 -2.736037 4.947441 0.062115 -2.732467 4.948319 0.000000 0.000000 0.000000 0.000000 0.000000 0.000000 0.000000 
-1.158254 17.316138 25.741539 3.644377 -5.346844 11.029892 -17.193314 -0.164471 -7.700762 -3.953879 1.204240 -11.539136 -9.120784 10.148603 11.776339 -0.420177 -1.030270 -17.522139 0.000000 0.000000 0.000000 13.300644 -9.422332 11.424676 -2.441495 7.400008 -7.206304 3.532043 -8.138920 34.813328 15.531653 -47.481450 34.331588 0.000000 0.000000 0.000000 7.610505 4.239959 6.218459 -9.806165 0.918593 -7.287178 -5.619339 1.878011 0.042869 2.549495 -0.379936 -11.042645 1.540530 -0.124575 4.173906 0.000000 0.000000 0.000000 3.147917 4.173149 3.676182 -58.737193 -12.810919 -11.489668 20.027516 -69.119654 -0.395700 1.896168 0.945886 -0.198572 1.910403 0.953446 -0.000000 0.000000 0.000000 0.000000 0.000000 0.000000 0.000000 -10.710700 -0.658282 9.420416 77.956849 12.880437 -9.402717 -30.357099 32.969756 0.241661 -2.919561 5.701072 0.121164 -2.911492 5.703915 0.000000 0.000000 0.000000 0.000000 0.000000 0.000000 0.000000 
